<svg width="157.000000" height="51.000000" viewBox="0 0 157 51" fill="none" xmlns="http://www.w3.org/2000/svg" xmlns:xlink="http://www.w3.org/1999/xlink">
	<desc>
			Created with Pixso.
	</desc>
	<defs>
		<clipPath id="clip1_125">
			<rect id="alphabet" width="157.000000" height="51.000000" fill="white" fill-opacity="0"/>
		</clipPath>
	</defs>
	<rect id="alphabet" width="157.000000" height="51.000000" fill="#FFFFFF" fill-opacity="0"/>
	<g clip-path="url(#clip1_125)">
		<path id="Vector" d="M147.59 30.44L147.59 20.24L144.07 20.24L144.07 16.87L147.59 16.87L147.59 10.89L151.35 10.89L151.35 16.87L156.21 16.87L156.21 20.24L151.35 20.24L151.35 30.21C151.35 32.44 152.29 33.36 154.02 33.36C154.72 33.36 155.19 33.28 155.74 33.05L157.07 36.19C156.21 36.58 155.35 36.73 154.1 36.73C149.79 36.73 147.59 34.43 147.59 30.44ZM123.46 26.68C123.46 21.16 127.38 16.33 133.18 16.33C139.13 16.33 142.89 20.4 142.89 26.68C142.89 26.99 142.82 27.37 142.82 27.37L127.07 27.37C127.3 31.52 130.28 33.74 133.41 33.74C135.61 33.74 137.8 32.9 138.82 30.37L142.11 31.75C140.94 34.51 138.04 37.04 133.41 37.04C127.54 37.04 123.46 32.51 123.46 26.68ZM133.18 19.63C130.44 19.63 128.24 21.47 127.46 24.31L138.98 24.31C138.9 22.62 137.41 19.63 133.18 19.63ZM105.21 33.66L105.05 33.66L105.05 36.35L101.45 36.35L101.45 7.97L105.21 7.97L105.21 16.94L105.05 19.63L105.21 19.63C106.39 17.86 108.81 16.25 112.03 16.25C117.04 16.25 121.51 20.7 121.51 26.61C121.51 32.51 117.12 36.96 112.03 36.96C108.81 37.04 106.31 35.5 105.21 33.66ZM117.67 26.68C117.67 22.31 114.69 19.63 111.32 19.63C108.03 19.63 104.98 22.24 104.98 26.68C104.98 31.13 107.95 33.74 111.32 33.74C114.69 33.66 117.67 31.06 117.67 26.68ZM79.98 30.52C79.98 26.07 84.06 23.69 88.68 23.69C91.34 23.69 93.3 24.46 94.09 24.92L94.09 24.38C94.09 21.47 91.66 19.63 88.91 19.63C86.88 19.63 84.84 20.63 84.14 22.47L80.69 21.01C81.39 19.24 83.74 16.25 88.76 16.25C93.62 16.25 97.61 19.09 97.61 24.61L97.61 36.35L94.01 36.35L94.01 33.66L93.85 33.66C92.75 35.27 90.72 37.04 87.35 37.04C83.35 37.04 79.98 34.58 79.98 30.52ZM94.09 27.99C94.09 27.99 92.52 26.68 89.31 26.68C85.39 26.68 83.82 28.75 83.82 30.52C83.82 32.59 86.02 33.59 87.97 33.59C90.95 33.66 94.09 31.21 94.09 27.99ZM62.98 16.94L62.83 19.63L62.98 19.63C64 17.86 66.59 16.25 69.25 16.25C74.34 16.25 76.85 19.63 76.85 24.46L76.85 36.35L73.09 36.35L73.09 25C73.09 20.93 71.05 19.63 68.15 19.63C64.94 19.63 62.9 22.62 62.9 25.61L62.9 36.35L59.14 36.35L59.14 7.97L62.9 7.97L62.98 16.94ZM40.26 33.66L40.11 33.66L40.26 36.35L40.26 44.94L36.5 44.94L36.5 16.94L40.11 16.94L40.11 19.63L40.26 19.63C41.44 17.86 43.87 16.25 47.08 16.25C52.09 16.25 56.56 20.7 56.56 26.61C56.56 32.51 52.09 37.04 47 37.04C43.87 37.04 41.36 35.5 40.26 33.66ZM52.72 26.68C52.72 22.31 49.74 19.63 46.37 19.63C43.08 19.63 40.03 22.24 40.03 26.68C40.03 31.13 43.01 33.74 46.37 33.74C49.74 33.66 52.72 31.06 52.72 26.68ZM28.83 36.42L32.59 36.42L32.59 7.97L28.83 7.97L28.83 36.42ZM11.51 7.97L0.54 36.42L4.7 36.42L7.52 28.68L19.74 28.68L22.56 36.42L26.63 36.42L15.66 7.97L11.51 7.97ZM13.47 12.42L13.63 12.42L18.41 25.3L8.77 25.3L13.47 12.42Z" fill="#B4A6A2" fill-opacity="1.000000" fill-rule="nonzero"/>
	</g>
</svg>
