<svg width="156.000000" height="51.000000" viewBox="0 0 156 51" fill="none" xmlns="http://www.w3.org/2000/svg" xmlns:xlink="http://www.w3.org/1999/xlink">
	<desc>
			Created with Pixso.
	</desc>
	<defs>
		<clipPath id="clip1_127">
			<rect id="amazon" width="156.000000" height="51.000000" fill="white" fill-opacity="0"/>
		</clipPath>
	</defs>
	<rect id="amazon" width="156.000000" height="51.000000" fill="#FFFFFF" fill-opacity="0"/>
	<g clip-path="url(#clip1_127)">
		<path id="arrow_1_" d="M94.11 36.5C84.69 40.41 74.49 42.33 65.23 42.33C51.45 42.33 38.14 38.65 27.32 32.44C26.38 31.9 25.68 32.9 26.46 33.59C36.43 42.41 49.66 47.77 64.37 47.77C74.8 47.77 86.95 44.48 95.35 38.42C96.68 37.42 95.43 35.89 94.11 36.5Z" fill="#B4A6A2" fill-opacity="1.000000" fill-rule="nonzero"/>
		<path id="arrow" d="M88.82 33.05C88.11 33.59 88.27 34.28 89.05 34.2C91.7 33.89 97.77 33.2 98.86 34.58C99.95 35.96 97.69 41.49 96.68 44.02C96.37 44.78 97.07 45.09 97.69 44.55C102.21 40.87 103.37 33.05 102.36 31.98C101.43 30.67 93.56 29.75 88.82 33.05Z" fill="#B4A6A2" fill-opacity="1.000000" fill-rule="nonzero"/>
		<path id="z" d="M105.16 23.62C102.59 22.16 99.56 21.78 96.76 21.85L104.38 11.12C105.09 10.2 105.47 9.58 105.47 9.12L105.47 6.36C105.47 5.82 105.09 5.59 104.62 5.59L89.91 5.59C89.44 5.59 89.13 5.98 89.13 6.36L89.13 9.58C89.13 10.12 89.52 10.35 89.98 10.35L97.69 10.35L88.82 22.77C88.27 23.54 88.27 24.46 88.27 25L88.27 28.29C88.27 28.83 88.82 29.29 89.28 28.98C94.26 26.38 100.26 26.61 104.77 28.98C105.32 29.29 105.86 28.68 105.86 28.29L105.86 24.92C105.86 24.38 105.71 24 105.16 23.62Z" fill="#B4A6A2" fill-opacity="1.000000" fill-rule="nonzero"/>
		<path id="m" d="M31.21 29.75L35.73 29.75C36.27 29.75 36.58 29.37 36.58 28.98L36.58 17.02C36.58 14.41 36.43 10.81 39.7 10.81C42.89 10.81 42.42 14.49 42.42 17.02L42.42 28.98C42.42 29.44 42.81 29.75 43.2 29.75L47.71 29.75C48.26 29.75 48.57 29.37 48.57 28.98L48.57 17.02C48.57 15.72 48.49 13.8 49.04 12.65C49.5 11.5 50.59 10.81 51.68 10.81C53.01 10.81 54.02 11.27 54.25 12.73C54.49 13.65 54.41 16.02 54.41 16.94L54.41 28.91C54.41 29.37 54.8 29.67 55.19 29.67L59.7 29.67C60.25 29.67 60.56 29.29 60.56 28.91L60.56 14.64C60.56 12.19 60.87 9.43 59.39 7.59C58.14 5.9 56.04 5.06 54.25 5.06C51.68 5.06 49.19 6.44 48.1 9.27C46.86 6.44 45.14 5.06 42.34 5.06C39.62 5.06 37.59 6.44 36.5 9.27L36.43 9.27L36.43 6.36C36.43 5.9 36.04 5.67 35.65 5.59L31.52 5.59C30.98 5.59 30.67 5.98 30.67 6.36L30.67 28.91C30.43 29.37 30.74 29.67 31.21 29.75Z" fill="#B4A6A2" fill-opacity="1.000000" fill-rule="nonzero"/>
		<path id="o" d="M118.09 5.13C111.62 5.13 108.04 10.66 108.04 17.63C108.04 24.61 111.62 30.21 118.09 30.21C124.31 30.21 128.28 24.69 128.28 17.86C128.36 10.81 124.78 5.13 118.09 5.13ZM118.09 25.53C114.58 25.53 114.58 19.63 114.58 16.87C114.58 14.11 114.82 9.73 118.09 9.73C119.56 9.73 120.5 10.35 120.97 11.96C121.51 13.72 121.59 16.02 121.59 17.94C121.74 20.86 121.59 25.53 118.09 25.53Z" fill="#B4A6A2" fill-opacity="1.000000" fill-rule="nonzero"/>
		<path id="n" d="M143.62 5.13C140.5 5.13 138.79 6.67 137.55 9.73L137.47 9.73L137.47 6.28C137.39 5.9 137 5.67 136.69 5.67L132.56 5.67C132.1 5.67 131.78 6.05 131.71 6.36L131.71 28.91C131.71 29.37 132.1 29.67 132.49 29.67L136.92 29.67C137.47 29.67 137.78 29.29 137.78 28.91L137.78 16.79C137.78 15.26 137.86 13.88 138.48 12.5C139.03 11.42 140.04 10.73 141.05 10.73C144.16 10.73 143.85 14.34 143.85 16.79L143.85 29.06C143.93 29.44 144.24 29.75 144.63 29.75L149.14 29.75C149.61 29.75 149.92 29.44 150 29.06L150 14.87C150 12.65 150 9.66 148.83 7.89C147.59 5.82 145.64 5.13 143.62 5.13Z" fill="#B4A6A2" fill-opacity="1.000000" fill-rule="nonzero"/>
		<path id="a_1_" d="M77.53 14.49C74.96 14.8 71.61 15.03 69.12 16.02C66.32 17.25 64.37 19.63 64.37 23.23C64.37 27.83 67.25 30.06 71.07 30.06C74.26 30.06 75.97 29.37 78.46 26.84C79.24 27.99 79.55 28.52 81.03 29.75C81.42 29.9 81.73 29.9 82.12 29.67C82.98 28.91 84.69 27.53 85.55 26.76C85.94 26.45 85.86 25.99 85.55 25.61C84.77 24.46 83.91 23.62 83.91 21.55L83.91 14.72C83.91 11.81 84.14 9.12 81.97 7.13C80.33 5.52 77.37 4.9 75.19 4.9C70.91 4.9 66.24 6.44 65.23 11.58C65.15 12.11 65.54 12.42 65.85 12.5L70.05 13.03C70.52 13.03 70.76 12.57 70.83 12.27C71.22 10.5 72.7 9.66 74.41 9.66C75.35 9.66 76.36 10.04 76.98 10.81C77.61 11.73 77.53 12.96 77.53 14.03L77.53 14.49ZM76.59 23.62C75.89 24.84 74.8 25.61 73.48 25.61C71.77 25.61 70.76 24.31 70.76 22.39C70.76 18.63 74.18 17.94 77.45 17.94L77.45 18.86C77.53 20.7 77.53 22.16 76.59 23.62Z" fill="#B4A6A2" fill-opacity="1.000000" fill-rule="nonzero"/>
		<path id="a" d="M26.93 25.61C26.15 24.46 25.29 23.62 25.29 21.55L25.29 14.72C25.29 11.81 25.53 9.12 23.35 7.13C21.64 5.52 18.76 4.9 16.58 4.9C12.29 4.9 7.62 6.44 6.61 11.58C6.53 12.11 6.92 12.42 7.23 12.5L11.59 12.96C12.06 12.96 12.29 12.5 12.37 12.19C12.76 10.43 14.24 9.58 16.03 9.58C16.96 9.58 17.98 9.96 18.6 10.73C19.22 11.65 19.14 12.88 19.14 13.95L19.14 14.49C16.5 14.8 13.15 15.03 10.66 16.02C7.86 17.25 5.91 19.63 5.91 23.23C5.91 27.83 8.79 30.06 12.61 30.06C15.8 30.06 17.51 29.37 20 26.84C20.78 27.99 21.09 28.52 22.57 29.75C22.96 29.9 23.27 29.9 23.66 29.67C24.52 28.91 26.23 27.53 27.08 26.76C27.32 26.45 27.24 25.99 26.93 25.61ZM18.21 23.62C17.51 24.84 16.42 25.61 15.1 25.61C13.38 25.61 12.45 24.31 12.45 22.39C12.45 18.63 15.88 17.94 19.14 17.94L19.14 18.86C18.99 20.7 19.07 22.16 18.21 23.62Z" fill="#B4A6A2" fill-opacity="1.000000" fill-rule="nonzero"/>
	</g>
</svg>
