<svg width="157.000000" height="51.000000" viewBox="0 0 157 51" fill="none" xmlns="http://www.w3.org/2000/svg" xmlns:xlink="http://www.w3.org/1999/xlink">
	<desc>
			Created with Pixso.
	</desc>
	<defs>
		<clipPath id="clip1_137">
			<rect id="google-original" width="157.000000" height="51.000000" fill="white" fill-opacity="0"/>
		</clipPath>
	</defs>
	<rect id="google-original" width="157.000000" height="51.000000" fill="#FFFFFF" fill-opacity="0"/>
	<g clip-path="url(#clip1_137)">
		<path id="g_1_" d="M38.78 17.79L20.44 17.79L20.44 23.08L33.45 23.08C32.82 30.52 26.48 33.74 20.44 33.74C12.77 33.74 6.11 27.83 6.11 19.55C6.18 11.5 12.53 5.36 20.52 5.36C26.71 5.36 30.31 9.2 30.31 9.2L34.15 5.36C34.15 5.36 29.3 0.07 20.36 0.07C8.93 -6.11e-5 0.23 9.35 0.23 19.47C0.23 29.37 8.46 39.03 20.6 39.03C31.25 39.03 39.09 31.9 39.09 21.32C39.09 19.09 38.78 17.79 38.78 17.79Z" fill="#B4A6A2" fill-opacity="1.000000" fill-rule="nonzero"/>
		<path id="o_1_" d="M53.74 13.95C46.22 13.95 40.81 19.7 40.81 26.38C40.81 33.2 46.06 39.03 53.82 39.03C60.87 39.03 66.59 33.74 66.59 26.53C66.59 18.17 59.93 13.95 53.74 13.95ZM53.82 18.86C57.5 18.86 61.02 21.78 61.02 26.45C61.02 31.06 57.58 34.05 53.82 34.05C49.74 34.05 46.53 30.83 46.53 26.38C46.45 22.08 49.66 18.86 53.82 18.86Z" fill="#B4A6A2" fill-opacity="1.000000" fill-rule="nonzero"/>
		<path id="o" d="M81.79 13.95C74.26 13.95 68.86 19.7 68.86 26.38C68.86 33.2 74.11 39.03 81.86 39.03C88.91 39.03 94.63 33.74 94.63 26.53C94.63 18.17 87.97 13.95 81.79 13.95ZM81.86 18.86C85.55 18.86 89.07 21.78 89.07 26.45C89.07 31.06 85.62 34.05 81.86 34.05C77.79 34.05 74.58 30.83 74.58 26.38C74.5 22.08 77.71 18.86 81.86 18.86Z" fill="#B4A6A2" fill-opacity="1.000000" fill-rule="nonzero"/>
		<path id="g" d="M109.28 13.95C102.39 13.95 96.98 19.86 96.98 26.53C96.98 34.05 103.25 39.11 109.21 39.11C112.89 39.11 114.77 37.65 116.26 36.04L116.26 38.49C116.26 42.79 113.59 45.4 109.52 45.4C105.6 45.4 103.64 42.56 102.94 40.95L97.92 42.94C99.65 46.55 103.17 50.3 109.44 50.3C116.26 50.3 121.51 46.09 121.51 37.19L121.51 14.72L116.1 14.72L116.1 16.87C114.53 15.1 112.26 13.95 109.28 13.95ZM109.75 18.86C113.12 18.86 116.57 21.7 116.57 26.53C116.57 31.44 113.12 34.12 109.68 34.12C105.99 34.12 102.55 31.21 102.55 26.53C102.63 21.7 106.15 18.86 109.75 18.86Z" fill="#B4A6A2" fill-opacity="1.000000" fill-rule="nonzero"/>
		<path id="e" d="M145.48 13.88C138.98 13.88 133.49 18.94 133.49 26.38C133.49 34.28 139.6 38.95 146.11 38.95C151.51 38.95 154.88 36.04 156.84 33.43L152.37 30.52C151.2 32.28 149.32 33.97 146.11 33.97C142.5 33.97 140.86 32.05 139.84 30.13L157 23.16L156.13 21.09C154.41 17.25 150.57 13.88 145.48 13.88ZM145.64 18.71C147.99 18.71 149.63 19.93 150.41 21.39L138.9 26.07C138.43 22.47 141.95 18.71 145.64 18.71Z" fill="#B4A6A2" fill-opacity="1.000000" fill-rule="nonzero"/>
		<path id="l" d="M125.27 38.26L130.91 38.26L130.91 1.3L125.27 1.3L125.27 38.26Z" fill="#B4A6A2" fill-opacity="1.000000" fill-rule="nonzero"/>
	</g>
</svg>
