<svg width="157.000000" height="51.000000" viewBox="0 0 157 51" fill="none" xmlns="http://www.w3.org/2000/svg" xmlns:xlink="http://www.w3.org/1999/xlink">
	<desc>
			Created with Pixso.
	</desc>
	<defs>
		<clipPath id="clip1_144">
			<rect id="netflix-primary" width="157.000000" height="51.000000" fill="white" fill-opacity="0"/>
		</clipPath>
	</defs>
	<rect id="netflix-primary" width="157.000000" height="51.000000" fill="#FFFFFF" fill-opacity="0"/>
	<g clip-path="url(#clip1_144)">
		<path id="Vector" d="M22.01 44.32C19.66 44.71 17.31 44.86 14.8 45.17L7.28 23.54L7.28 46.09C4.93 46.32 2.82 46.62 0.54 47.01L0.54 5.67L6.81 5.67L15.35 29.14L15.35 5.67L22.01 5.67L22.01 44.32ZM35.01 20.86C37.6 20.86 41.52 20.7 43.87 20.7L43.87 27.14C40.97 27.14 37.52 27.14 35.01 27.3L35.01 36.88C38.85 36.65 42.77 36.35 46.69 36.19L46.69 42.41L28.43 43.79L28.43 5.67L46.69 5.67L46.69 12.11L35.01 12.11C35.01 12.19 35.01 20.86 35.01 20.86ZM71.13 12.19L64.31 12.19L64.31 41.87C62.12 41.87 59.85 41.87 57.73 41.95L57.73 12.19L50.92 12.19L50.92 5.67L71.21 5.67C71.13 5.67 71.13 12.19 71.13 12.19ZM81.86 20.4L90.87 20.4L90.87 26.84L81.86 26.84L81.86 41.49L75.36 41.49L75.36 5.67L93.77 5.67L93.77 12.11L81.86 12.11C81.86 12.19 81.86 20.4 81.86 20.4ZM104.51 35.81C108.27 35.89 112.03 36.19 115.71 36.35L115.71 42.71C109.83 42.33 103.96 42.02 97.92 41.87L97.92 5.67L104.51 5.67L104.51 35.81ZM121.27 43.17C123.39 43.33 125.58 43.4 127.77 43.63L127.77 5.67L121.27 5.67L121.27 43.17ZM156.6 5.67L148.22 25.3L156.6 46.93C154.1 46.62 151.67 46.16 149.16 45.78L144.46 33.82L139.6 44.78C137.25 44.4 134.9 44.25 132.55 43.94L141.01 25.07L133.34 5.67L140.39 5.67L144.7 16.48L149.32 5.67L156.6 5.67Z" fill="#B4A6A2" fill-opacity="1.000000" fill-rule="nonzero"/>
	</g>
</svg>
