<svg width="157.000000" height="51.000000" viewBox="0 0 157 51" fill="none" xmlns="http://www.w3.org/2000/svg" xmlns:xlink="http://www.w3.org/1999/xlink">
	<desc>
			Created with Pixso.
	</desc>
	<defs>
		<clipPath id="clip1_146">
			<rect id="shopify-original" width="157.000000" height="51.000000" fill="white" fill-opacity="0"/>
		</clipPath>
	</defs>
	<rect id="shopify-original" width="157.000000" height="51.000000" fill="#FFFFFF" fill-opacity="0"/>
	<g clip-path="url(#clip1_146)">
		<path id="Vector" d="M33.68 11.88C33.68 11.65 33.45 11.58 33.29 11.5C33.13 11.5 29.77 11.27 29.77 11.27C29.77 11.27 27.42 8.97 27.18 8.74C26.95 8.51 26.4 8.58 26.24 8.58C26.24 8.58 25.69 8.74 24.91 8.97C24.12 6.74 22.79 4.75 20.36 4.75L20.13 4.75C19.42 3.83 18.56 3.45 17.86 3.45C12.22 3.45 9.55 10.35 8.69 13.88C6.5 14.57 4.93 15.03 4.77 15.03C3.6 15.41 3.52 15.41 3.36 16.56C3.21 17.56 0 41.87 0 41.87L24.99 46.47L38.54 43.63C38.46 43.56 33.76 12.11 33.68 11.88ZM23.58 9.43C22.95 9.66 22.24 9.81 21.46 10.04L21.46 9.58C21.46 8.2 21.23 7.13 20.91 6.21C22.17 6.51 23.03 7.89 23.58 9.43ZM19.42 6.59C19.74 7.43 19.97 8.66 19.97 10.27L19.97 10.5C18.64 10.89 17.07 11.35 15.59 11.81C16.45 8.74 18.01 7.13 19.42 6.59ZM17.7 5.06C17.94 5.06 18.17 5.13 18.41 5.29C16.6 6.13 14.65 8.2 13.86 12.42C12.69 12.8 11.51 13.11 10.41 13.49C11.43 10.27 13.71 5.06 17.7 5.06Z" fill="#B4A6A2" fill-opacity="1.000000" fill-rule="nonzero"/>
		<path id="Vector" d="M33.37 11.58C33.21 11.58 29.84 11.35 29.84 11.35C29.84 11.35 27.49 9.04 27.26 8.81C27.18 8.74 27.02 8.66 26.87 8.66L24.99 46.47L38.54 43.63C38.54 43.63 33.76 12.19 33.76 11.96C33.68 11.65 33.53 11.58 33.37 11.58Z" fill="#B4A6A2" fill-opacity="1.000000" fill-rule="nonzero"/>
		<path id="Vector" d="M20.36 18.86L18.72 23.69C18.72 23.69 17.23 22.93 15.43 22.93C12.77 22.93 12.69 24.54 12.69 24.92C12.69 27.14 18.56 27.99 18.56 33.2C18.56 37.27 15.9 39.95 12.37 39.95C8.06 39.95 5.87 37.34 5.87 37.34L7.05 33.66C7.05 33.66 9.32 35.58 11.2 35.58C12.45 35.58 12.92 34.58 12.92 33.89C12.92 30.98 8.06 30.83 8.06 26.07C8.06 22.08 11.04 18.17 16.92 18.17C19.27 18.25 20.36 18.86 20.36 18.86Z" fill="#FFFFFF" fill-opacity="1.000000" fill-rule="nonzero"/>
		<path id="Vector" d="M54.29 27.99C52.96 27.3 52.25 26.68 52.25 25.84C52.25 24.77 53.19 24.08 54.76 24.08C56.48 24.08 58.05 24.77 58.05 24.77L59.3 21.09C59.3 21.09 58.13 20.24 54.84 20.24C50.21 20.24 46.92 22.85 46.92 26.53C46.92 28.6 48.41 30.21 50.45 31.36C52.09 32.28 52.64 32.9 52.64 33.89C52.64 34.89 51.86 35.66 50.29 35.66C48.02 35.66 45.9 34.51 45.9 34.51L44.65 38.11C44.65 38.11 46.61 39.41 49.9 39.41C54.68 39.41 58.13 37.11 58.13 32.97C58.13 30.75 56.4 29.14 54.29 27.99ZM73.32 20.24C70.97 20.24 69.09 21.32 67.68 23L67.61 23L69.64 12.57L64.31 12.57L59.14 39.11L64.47 39.11L66.27 29.98C66.98 26.53 68.78 24.38 70.5 24.38C71.68 24.38 72.15 25.15 72.15 26.3C72.15 26.99 72.07 27.91 71.91 28.6L69.88 39.03L75.2 39.03L77.32 28.29C77.55 27.14 77.71 25.76 77.71 24.92C77.63 22.01 76.07 20.24 73.32 20.24ZM89.7 20.24C83.27 20.24 79.04 25.92 79.04 32.21C79.04 36.27 81.63 39.49 86.41 39.49C92.68 39.49 96.91 33.97 96.91 27.53C96.91 23.77 94.71 20.24 89.7 20.24ZM87.11 35.43C85.31 35.43 84.53 33.89 84.53 32.05C84.53 29.06 86.09 24.15 88.99 24.15C90.87 24.15 91.5 25.76 91.5 27.3C91.5 30.52 89.93 35.43 87.11 35.43ZM110.54 20.24C106.93 20.24 104.9 23.31 104.9 23.31L104.82 23.31L105.13 20.55L100.43 20.55C100.2 22.47 99.8 25.3 99.33 27.45L95.65 46.55L100.98 46.55L102.47 38.8L102.55 38.8C102.55 38.8 103.64 39.49 105.68 39.49C111.95 39.49 116.02 33.2 116.02 26.91C116.02 23.31 114.46 20.24 110.54 20.24ZM105.45 35.5C104.04 35.5 103.25 34.74 103.25 34.74L104.11 29.83C104.74 26.61 106.46 24.38 108.34 24.38C109.99 24.38 110.46 25.84 110.46 27.22C110.46 30.75 108.42 35.5 105.45 35.5ZM123.62 12.73C121.9 12.73 120.57 14.03 120.57 15.72C120.57 17.25 121.58 18.32 123.07 18.32L123.15 18.32C124.8 18.32 126.21 17.25 126.28 15.33C126.28 13.8 125.27 12.73 123.62 12.73ZM116.18 39.03L121.51 39.03L125.11 20.55L119.78 20.55L116.18 39.03ZM138.66 20.62L134.98 20.62L135.14 19.78C135.45 18.02 136.55 16.41 138.27 16.41C139.21 16.41 140 16.64 140 16.64L141.01 12.57C141.01 12.57 140.07 12.11 138.11 12.11C136.23 12.11 134.35 12.65 132.87 13.88C131.06 15.41 130.2 17.56 129.81 19.78L129.65 20.62L127.15 20.62L126.36 24.54L128.87 24.54L126.05 39.11L131.38 39.11L134.2 24.54L137.88 24.54L138.66 20.62ZM151.43 20.62C151.43 20.62 148.06 28.83 146.58 33.28L146.5 33.28C146.42 31.82 145.17 20.62 145.17 20.62L139.52 20.62L142.74 37.57C142.82 37.96 142.74 38.19 142.66 38.42C142.03 39.57 141.01 40.72 139.76 41.56C138.74 42.25 137.64 42.71 136.78 43.02L138.27 47.47C139.37 47.24 141.56 46.39 143.52 44.63C145.95 42.41 148.22 38.95 150.49 34.28L157 20.62L151.43 20.62Z" fill="#B4A6A2" fill-opacity="1.000000" fill-rule="nonzero"/>
	</g>
</svg>
