<svg width="35.000000" height="35.000000" viewBox="0 0 35 35" fill="none" xmlns="http://www.w3.org/2000/svg" xmlns:xlink="http://www.w3.org/1999/xlink">
	<desc>
			Created with Pixso.
	</desc>
	<defs>
		<clipPath id="clip1_216">
			<rect id="dribbble 1" width="35.000000" height="35.000000" fill="white" fill-opacity="0"/>
		</clipPath>
	</defs>
	<rect id="dribbble 1" width="35.000000" height="35.000000" fill="#FFFFFF" fill-opacity="0"/>
	<g clip-path="url(#clip1_216)">
		<path id="Vector" d="M17.5 32.08C9.44 32.08 2.91 25.55 2.91 17.49C2.91 9.44 9.44 2.91 17.5 2.91C25.55 2.91 32.08 9.44 32.08 17.49C32.08 25.55 25.55 32.08 17.5 32.08Z" stroke="#6B7280" stroke-opacity="1.000000" stroke-width="3.000000" stroke-linejoin="round"/>
		<path id="Vector" d="M12.48 4.01C18.85 12.8 21.26 17.74 24.19 29.85M27.89 7.42C22.47 13.76 14.86 15.67 3.28 15.95M31.71 18.72C26.61 17.36 22.05 17.52 18.68 18.72C14.91 20.06 11.37 22.89 7.83 27.94" stroke="#6B7280" stroke-opacity="1.000000" stroke-width="3.000000" stroke-linejoin="round"/>
	</g>
</svg>
