<svg width="35.000000" height="35.000000" viewBox="0 0 35 35" fill="none" xmlns="http://www.w3.org/2000/svg" xmlns:xlink="http://www.w3.org/1999/xlink">
	<desc>
			Created with Pixso.
	</desc>
	<defs>
		<clipPath id="clip1_230">
			<rect id="instagram 1" width="35.000000" height="35.000000" fill="white" fill-opacity="0"/>
		</clipPath>
	</defs>
	<rect id="instagram 1" width="35.000000" height="35.000000" fill="#FFFFFF" fill-opacity="0"/>
	<g clip-path="url(#clip1_230)">
		<path id="Vector" d="M24.79 2.91C28.81 2.91 32.08 6.18 32.08 10.2L32.08 24.79C32.08 28.81 28.81 32.08 24.79 32.08L10.2 32.08C6.18 32.08 2.91 28.81 2.91 24.79L2.91 10.2C2.91 6.18 6.18 2.91 10.2 2.91L24.79 2.91Z" stroke="#6B7280" stroke-opacity="1.000000" stroke-width="3.000000" stroke-linejoin="round"/>
		<path id="Vector" d="M22.74 20.12C22.17 21.21 21.28 22.09 20.18 22.64C19.08 23.19 17.84 23.39 16.63 23.19C15.42 23 14.3 22.42 13.43 21.56C12.57 20.69 11.99 19.57 11.8 18.36C11.6 17.15 11.8 15.91 12.35 14.81C12.9 13.71 13.78 12.82 14.87 12.25C15.96 11.69 17.2 11.48 18.41 11.66C19.65 11.85 20.8 12.42 21.68 13.31C22.57 14.19 23.14 15.34 23.33 16.58C23.51 17.79 23.3 19.03 22.74 20.12Z" stroke="#6B7280" stroke-opacity="1.000000" stroke-width="3.000000" stroke-linejoin="round"/>
		<path id="Vector" d="M25.52 9.47L25.53 9.47" stroke="#6B7280" stroke-opacity="1.000000" stroke-width="3.000000" stroke-linejoin="round" stroke-linecap="round"/>
	</g>
</svg>
