<svg width="35.000000" height="35.000000" viewBox="0 0 35 35" fill="none" xmlns="http://www.w3.org/2000/svg" xmlns:xlink="http://www.w3.org/1999/xlink">
	<desc>
			Created with Pixso.
	</desc>
	<defs>
		<clipPath id="clip1_214">
			<rect id="twitter 1" width="35.000000" height="35.000000" fill="white" fill-opacity="0"/>
		</clipPath>
	</defs>
	<rect id="twitter 1" width="35.000000" height="35.000000" fill="#FFFFFF" fill-opacity="0"/>
	<g clip-path="url(#clip1_214)">
		<path id="Vector" d="M28.96 6.6C28.08 5.59 26.91 4.88 25.61 4.55C24.32 4.23 22.95 4.31 21.7 4.78C20.45 5.26 19.37 6.11 18.62 7.22C17.87 8.33 17.48 9.64 17.5 10.98L17.5 12.43C14.93 12.5 12.39 11.93 10.1 10.78C7.81 9.63 5.84 7.93 4.37 5.83C4.37 5.83 -1.46 18.95 11.66 24.79C8.66 26.83 5.08 27.85 1.45 27.7C14.58 35 30.62 27.7 30.62 10.93C30.62 10.53 30.58 10.12 30.5 9.72C31.99 8.25 33.04 6.4 33.54 4.37C32.14 5.36 30.59 6.11 28.96 6.6Z" stroke="#6B7280" stroke-opacity="1.000000" stroke-width="3.000000" stroke-linejoin="round"/>
	</g>
</svg>
