<svg width="10.000000" height="10.000000" viewBox="0 0 10 10" fill="none" xmlns="http://www.w3.org/2000/svg" xmlns:xlink="http://www.w3.org/1999/xlink">
	<desc>
			Created with Pixso.
	</desc>
	<defs/>
	<path id="software-upload" d="M5 7.49121C4.65479 7.49121 4.375 7.21143 4.375 6.86621L4.375 2.39307L2.34863 4.41943L1.46436 3.53564L5 0L8.53564 3.53564L7.65186 4.41943L5.625 2.39258L5.625 6.86621C5.625 7.21143 5.34521 7.49121 5 7.49121ZM1.25 6.25L0 6.25L0 8.75C0 9.44043 0.55957 10 1.25 10L8.75 10C9.44043 10 10 9.44043 10 8.75L10 6.25L8.75 6.25L8.75 8.75L1.25 8.75L1.25 6.25Z" fill="#495057" fill-opacity="1.000000" fill-rule="evenodd"/>
</svg>
